<?xml version="1.0" encoding="utf-8"?>
<!-- Generator: Adobe Illustrator 19.0.0, SVG Export Plug-In . SVG Version: 6.00 Build 0)  -->
<svg version="1.1" id="layer" xmlns="http://www.w3.org/2000/svg" xmlns:xlink="http://www.w3.org/1999/xlink" x="0px" y="0px"
	 viewBox="-153 -46 652 652" style="enable-background:new -153 -46 652 652;" xml:space="preserve">
<title>logo/logo</title>
<desc>Created with Sketch.</desc>
<path d="M281.2,155.4c-19.5,1.5-40.6,4.8-56.2,7.7h0c-25.1,4.5-35,7.8-33.7,13.7c0.9,4,6.3,4.1,38.9,4.6l0-0.1
	c6.5,0.2,12,0.3,18.6,0.6c13.7,0.6,21.8,3.2,10.3,19.6c-11.6,16.4-42.2,52.2-56.7,65.5c-9.6,8.7-8.9,2.7-5.7-12.4
	c3.8-16.1,10-33.2-14.6-35.5c-31-2.9-64.8-2.9-78-4.3c-13.2-1.4-20.9-8.7-13.1-23.8c15.1-29.4,65-84.8,97.8-124.8
	c23-27,23.4-34.7,19.2-38.9c-3.6-3.6-9.8-1.2-13.4,0.7c-28.4,19.9-57.4,46.8-107.1,99.9c-15.2,16.3-34.1,38.4-41.9,48.5
	c-30,38.8-12.5,71.5,18.9,74.6c27,2.7,61.2,3.8,74,4.6c12.1,0.8,19.7,5.1,15.8,26.1c-3.9,20.8-4.5,26-6.1,36.2
	c-3.1,19.6,7.8,29.6,25,19.2c17.2-10.4,100.1-94,126.1-143.1C308.4,176.6,315,152.7,281.2,155.4 M89.9,449.5h45.9v12.8h-32.1v15.6
	h25.8v12.8h-25.8v20.5h33.2V524h-47V449.5z M-69.2,484.3h-29.2v0h-0.1v12.8h17C-83,504-88.2,512-99.3,512
	c-12.7,0-20.7-11.9-20.7-25.2c0-15.8,8.7-25.2,19.8-25.2c9.9,0,15,4.3,17.5,10.8l13.6-4.3c-3.3-8.2-10.8-19.7-31.1-19.7
	c-21,0-34.5,18.5-34.5,38.5c0,19.9,13.5,38.4,34.5,38.4c6.9,0,13.1-1.7,18.3-5v3.8h12.7L-69.2,484.3L-69.2,484.3L-69.2,484.3z
	 M263.1,524l-5.4-17.6h-23.5l-5.4,17.6h-14.9l25.1-74.5h13.8l25.1,74.5H263.1z M245.9,467.8l-7.8,25.9h15.7L245.9,467.8z
	 M275.7,462.3v-12.8h54.9v12.8h-20.6V524h-13.8v-61.7H275.7z M372.5,448.3c13,0,23.8,5.1,30.3,17c3.3,5.9,5,13.1,5,21.5
	c0,16.8-7.4,29-17.8,34.5c-5.3,2.7-11,4-17.6,4c-13,0-23.7-5.1-30.4-17c-3.3-5.9-4.9-13.1-4.9-21.5c0-16.8,7.4-29.1,17.8-34.4
	C360.2,449.7,366,448.3,372.5,448.3 M372.5,461.2c-6.1,0-11.1,2.2-15.2,6.5c-4,4.3-6,10.6-6,19.1c0,8.5,2,14.8,6,19.1
	c4.1,4.3,9.1,6.5,15.2,6.5c6.1,0,11.1-2.2,15.1-6.5c4.1-4.3,6.1-10.6,6.1-19.1c0-8.5-2-14.8-6.1-19.1
	C383.7,463.4,378.6,461.2,372.5,461.2 M471.3,470.7L471.3,470.7c0-12.8-8.2-21.1-22.6-21.1h-27.1l0,74.4h13.8v-32.1h3.9l16.6,32.1
	h15.4l-16.9-32.6C465.3,489.5,471.3,481.8,471.3,470.7L471.3,470.7L471.3,470.7z M448.8,479.2h-13.4l0-16.8h13.4
	c5.8,0,8.7,2.8,8.7,8.4C457.5,476.4,454.7,479.2,448.8,479.2L448.8,479.2z M204.7,470.6L204.7,470.6c0-12.8-8.2-21.2-22.7-21.2
	h-27.2l0,74.6h13.8v-32.2h3.9l16.7,32.2h15.5l-17-32.7C198.6,489.4,204.6,481.6,204.7,470.6L204.7,470.6L204.7,470.6L204.7,470.6z
	 M182.1,479h-13.4l0-16.8h13.4c5.9,0,8.7,2.8,8.7,8.4C190.8,476.3,187.9,479,182.1,479L182.1,479z M-50,449.5h45.9v12.8h-32.1v15.6
	h25.8v12.8h-25.8v20.5H-3V524h-47V449.5z M57,449.5h13.8V524H56.3L29,474.8V524H15.3v-74.5h14.5L57,498.7V449.5z"/>
</svg>
